<?xml version="1.0" encoding="UTF-8"?>
<svg viewBox="0 0 52 56" xmlns="http://www.w3.org/2000/svg">
  <g fill="currentColor" stroke="none">
    <path fill-rule="evenodd" clip-rule="evenodd" d="M11.1103 7.20543C9.52298 6.22128 9.60804 3.87721 11.2837 3.01963L11.2894 3.0168C25.036 -3.95142 42.1278 1.50326 49.0935 15.7545C55.1767 28.1907 51.0844 43.4631 39.5984 51.1914C26.3865 60.0906 8.76784 56.1947 0.387948 43.1583C-0.568868 41.682 0.334405 39.6823 2.10971 39.4667L2.30697 39.4423L2.30836 39.4421C2.5427 39.4134 2.78588 39.3833 3.02835 39.3532C-2.87336 28.1422 0.827878 14.2502 11.5112 7.45825C11.3727 7.36868 11.2405 7.28548 11.116 7.20897L11.1103 7.20543ZM15.4891 10.6994C15.2641 10.818 15.0403 10.9415 14.8181 11.0698C5.45932 16.4731 2.25276 28.4402 7.65607 37.7989C7.77361 38.0025 7.89427 38.2033 8.01793 38.4009C8.6802 38.2193 9.42917 37.9935 10.2312 37.7172C12.702 36.8658 15.5826 35.5653 17.9905 33.663C17.5498 33.2004 17.1565 32.6786 16.823 32.1008C14.5588 28.1787 15.9025 23.1638 19.8243 20.8992C20.5277 20.4932 21.266 20.2032 22.0172 20.0232C21.0036 17.3841 19.3135 14.9734 17.7402 13.1135C16.8884 12.1066 16.0903 11.2838 15.4891 10.6994ZM28.1107 15.5032C27.9731 17.2128 27.7358 18.906 27.4029 20.5742C26.67 20.2317 25.8903 19.9992 25.0908 19.8838C25.3793 18.3966 25.5872 16.8891 25.712 15.3677C25.1092 15.0927 24.5833 14.634 24.2269 14.0166C23.3158 12.4385 23.8565 10.4206 25.4345 9.50945C27.0125 8.59833 29.0303 9.13904 29.9414 10.7171C30.8525 12.2952 30.3118 14.3131 28.7338 15.2242C28.5321 15.3407 28.3234 15.4333 28.1107 15.5032ZM21.4256 23.6726C19.0354 25.0528 18.2165 28.1092 19.5964 30.4996C20.9764 32.8899 24.0328 33.7089 26.423 32.3289C28.8131 30.9489 29.6323 27.8923 28.2521 25.502C26.8721 23.1116 23.8157 22.2926 21.4256 23.6726Z" />
    <path d="M14.6787 15.7755C14.6787 15.7755 9.35225 18.5272 9.00195 25.7185" stroke="currentColor" stroke-width="2" stroke-linecap="round" stroke-miterlimit="10" fill="none"/>
  </g>
</svg>

