<?xml version="1.0" standalone="no"?>
<!DOCTYPE svg PUBLIC "-//W3C//DTD SVG 20010904//EN"
 "http://www.w3.org/TR/2001/REC-SVG-20010904/DTD/svg10.dtd">
<svg version="1.0" xmlns="http://www.w3.org/2000/svg"
 width="751.000000pt" height="751.000000pt" viewBox="0 0 751.000000 751.000000"
 preserveAspectRatio="xMidYMid meet">
<metadata>
Created by potrace 1.14, written by Peter Selinger 2001-2017
</metadata>
<g transform="translate(0.000000,751.000000) scale(0.100000,-0.100000)"
fill="#000000" stroke="none">
<path d="M1955 6053 c-11 -2 -54 -15 -95 -30 -156 -53 -274 -158 -349 -310
-56 -112 -61 -155 -58 -499 2 -296 3 -313 22 -334 11 -13 34 -28 50 -35 23 -9
316 -12 1227 -11 659 1 1198 -1 1198 -4 0 -2 -32 -37 -72 -77 -67 -67 -71 -74
-62 -100 7 -21 18 -29 49 -36 170 -35 276 -77 383 -154 176 -126 287 -290 342
-510 29 -116 39 -133 73 -133 10 0 276 259 633 615 646 647 676 680 724 815
23 62 24 80 28 392 3 284 1 330 -12 357 -35 66 128 61 -2068 60 -1096 -1
-2002 -3 -2013 -6z"/>
<path d="M3688 4355 c-2 -2 -19 -5 -38 -8 -52 -7 -144 -38 -167 -56 -32 -25
-37 -57 -14 -80 20 -20 20 -20 -7 -37 -23 -14 -87 -78 -121 -120 -5 -6 -23
-41 -40 -76 -56 -121 -65 -275 -21 -390 21 -57 25 -83 11 -74 -5 3 -19 -2 -31
-12 -30 -24 -23 -53 29 -119 83 -104 221 -184 355 -207 484 -85 854 410 636
851 -77 157 -226 274 -398 314 -43 10 -187 20 -194 14z"/>
<path d="M2701 3575 c-259 -256 -1101 -1101 -1121 -1125 -42 -49 -90 -148
-110 -225 -18 -70 -20 -111 -20 -377 0 -331 2 -343 62 -374 30 -15 189 -17
1998 -16 1081 0 1990 3 2020 7 72 9 182 52 253 99 103 68 193 187 238 316 23
62 24 79 27 390 3 351 2 354 -51 394 l-28 21 -1202 1 c-661 1 -1205 2 -1209 3
-4 1 24 32 63 71 100 101 93 127 -41 154 -349 72 -620 350 -680 699 -12 66
-27 87 -61 87 -7 0 -69 -56 -138 -125z"/>
</g>
</svg>
