<svg width="69" height="75" viewBox="0 0 69 75" fill="none" xmlns="http://www.w3.org/2000/svg">
<path d="M20.0691 22.0949L20.0734 22.0926C20.7209 21.7552 20.9747 20.9571 20.6393 20.3079C20.3033 19.6574 19.5021 19.4031 18.8516 19.7392L18.8468 19.7417C18.3978 19.9772 17.9745 20.2672 17.5664 20.5665C16.8321 21.1052 15.858 21.9246 14.8704 23.0641C12.8862 25.3533 10.8596 28.9234 10.6106 34.0349C10.575 34.7663 11.139 35.3881 11.8704 35.4237C12.6017 35.4593 13.2235 34.8953 13.2591 34.1639C13.4746 29.7409 15.2112 26.7195 16.8742 24.8009C17.7101 23.8364 18.5306 23.1479 19.1349 22.7046C19.4366 22.4833 19.6827 22.3243 19.8476 22.2237C19.93 22.1734 19.9919 22.1378 20.0301 22.1164C20.0419 22.1098 20.0515 22.1045 20.0586 22.1006C20.063 22.0982 20.0665 22.0963 20.0691 22.0949Z" fill="#262626"/>
<path fill-rule="evenodd" clip-rule="evenodd" d="M14.9605 4.00358C12.7388 5.14061 12.6261 8.2485 14.7306 9.55333L14.7382 9.55803C14.9032 9.65947 15.0785 9.76978 15.2621 9.88853C1.09764 18.8937 -3.80965 37.3124 4.01514 52.1765C3.69366 52.2164 3.37124 52.2563 3.06054 52.2944L3.0587 52.2946L2.79716 52.327C0.443371 52.6128 -0.754235 55.2641 0.514362 57.2215C11.6249 74.5058 34.9846 79.6712 52.5016 67.8722C67.7303 57.6256 73.1561 37.3767 65.0907 20.8881C55.8552 1.9931 33.194 -5.239 14.9681 3.99983L14.9605 4.00358ZM19.6466 14.6769C19.9412 14.5068 20.2379 14.3431 20.5362 14.1858C21.3334 14.9606 22.3915 16.0516 23.5209 17.3866C25.6068 19.8525 27.8477 23.0487 29.1915 26.5478C28.1956 26.7864 27.2167 27.1709 26.2841 27.7092C21.0844 30.7118 19.3028 37.3608 22.3048 42.5609C22.747 43.327 23.2684 44.0188 23.8527 44.6321C20.6602 47.1543 16.841 48.8786 13.5651 50.0074C12.5017 50.3737 11.5087 50.6731 10.6306 50.9139C10.4666 50.6519 10.3067 50.3857 10.1508 50.1157C2.98683 37.7075 7.23825 21.8409 19.6466 14.6769ZM36.3322 27.2783C36.7736 25.0666 37.0882 22.8216 37.2706 20.5549C37.5526 20.4623 37.8293 20.3395 38.0968 20.185C40.189 18.977 40.9058 16.3016 39.6979 14.2093C38.4899 12.117 35.8146 11.4001 33.7224 12.6081C31.6302 13.8162 30.9133 16.4916 32.1213 18.5839C32.5938 19.4025 33.2911 20.0107 34.0903 20.3753C33.9248 22.3924 33.6492 24.3912 33.2667 26.363C34.3267 26.516 35.3605 26.8242 36.3322 27.2783ZM25.9819 40.4379C24.1524 37.2686 25.2381 33.2163 28.4072 31.3864C31.5761 29.5567 35.6284 30.6426 37.4581 33.8119C39.288 36.9811 38.2019 41.0336 35.033 42.8633C31.8639 44.693 27.8116 43.6071 25.9819 40.4379Z" fill="#262626"/>
</svg>