<svg width="839" height="181" viewBox="0 0 839 181" fill="none" xmlns="http://www.w3.org/2000/svg">
<path fill-rule="evenodd" clip-rule="evenodd" d="M144.207 99.3818L218.233 49.3906L154.302 140.602H56.9629L155.384 0L144.207 99.3818ZM42.0615 47.1074L75.3486 98.6611L53.2373 136.275L25.5977 62.4893L0.000976562 84.6016L14.3018 45.4248L42.0615 47.1074Z" fill="#FAFAFA"/>
<path d="M533.441 42.3011C533.437 42.356 533.078 46.7997 532.601 55.1595C539.691 51.4342 549.184 48.4291 556.635 48.4291V48.5492C577.545 48.5492 590.764 61.7689 590.764 96.1381C590.764 130.507 575.502 143.726 556.635 143.726C548.223 143.726 537.287 140.722 530.077 137.357V149.133C530.077 166.872 535.695 180.547 535.725 180.619H495.828C495.842 180.558 498.836 167.238 500.274 149.133C501.356 137.116 502.558 107.193 500.034 78.472C498.953 65.0128 493.665 48.6693 493.665 48.6693L533.441 42.3011ZM838.316 47.2279C838.261 47.3802 813.672 114.43 805.87 136.996C802.145 147.812 791.449 180.378 791.449 180.378H750.591L778.351 134.833L764.051 133.271C764.051 133.271 754.557 95.2962 746.145 67.6566C742.059 54.1976 735.449 47.348 735.449 47.348H776.548L788.445 110.318C788.474 110.226 796.14 85.2794 798.06 62.0092C798.78 52.7608 795.179 47.3537 795.175 47.348H838.196L838.316 47.2279ZM392 48.4291C437.064 48.4292 437.064 69.7003 437.064 96.0179C437.064 122.335 437.184 143.606 392 143.606C346.816 143.606 346.815 122.335 346.815 96.0179C346.815 69.7003 346.815 48.4291 392 48.4291ZM698.317 46.266C717.665 43.9828 737.013 50.7129 737.013 86.5238V118.129C737.013 132.67 743.021 141.203 743.021 141.203H703.244L700.961 132.069C696.274 139.039 684.377 147.091 665.149 141.803C645.562 136.395 644 117.408 649.047 108.035C657.099 92.8931 680.051 85.5623 700.961 84.7211V75.9486C700.961 63.4509 682.214 63.0908 682.214 76.9105V81.1166L653.013 88.807L649.287 55.1595C653.253 54.3183 676.206 48.7896 698.317 46.266ZM483.929 15.7426C483.929 15.7426 480.563 31.2452 480.563 100.344C480.564 118.25 486.212 141.323 486.212 141.323H446.315C446.315 141.323 449.32 129.666 450.762 111.52C451.843 99.5027 453.285 77.8717 450.762 49.1508C449.562 35.7112 446.684 22.0316 446.676 21.9916L483.929 15.6224V15.7426ZM636.67 15.7426C636.67 15.7426 633.305 31.2452 633.305 100.344C633.305 118.25 638.953 141.323 638.953 141.323H599.056C599.056 141.323 602.06 129.666 603.502 111.52C604.583 99.5027 606.026 77.8717 603.502 49.1508C602.3 35.6915 599.416 21.9916 599.416 21.9916L636.67 15.6224V15.7426ZM291.173 124.378L335.997 102.507L331.791 140.601H242.143L291.173 67.6566L243.945 91.4506L248.392 51.9144H340.083L291.173 124.378ZM392 65.3734C387.193 65.3734 383.348 69.219 383.348 74.0258V118.009C383.348 122.816 387.313 126.661 392 126.661C396.687 126.661 400.652 122.816 400.652 118.009V74.0258C400.652 69.2191 396.807 65.3736 392 65.3734ZM544.257 65.3734C539.57 65.3736 535.725 69.2192 535.725 74.0258V118.009C535.725 122.816 539.45 126.661 544.257 126.661C549.064 126.661 552.909 122.816 552.909 118.009V74.0258C552.909 69.219 548.943 65.3734 544.257 65.3734ZM700.961 99.8627C696.755 99.382 688.103 101.185 683.776 109.237C679.33 117.889 687.982 127.262 700.961 117.889V99.8627Z" fill="#FAFAFA"/>
</svg>
