<svg width="360" height="75" viewBox="0 0 360 75" fill="none" xmlns="http://www.w3.org/2000/svg">
<path d="M20.0691 22.0949L20.0734 22.0926C20.7209 21.7552 20.9747 20.9571 20.6393 20.3079C20.3033 19.6574 19.5021 19.4031 18.8516 19.7392L18.8468 19.7417C18.3978 19.9772 17.9745 20.2672 17.5664 20.5665C16.8321 21.1052 15.858 21.9246 14.8704 23.0641C12.8862 25.3533 10.8596 28.9234 10.6106 34.0349C10.575 34.7663 11.139 35.3881 11.8704 35.4237C12.6017 35.4593 13.2235 34.8953 13.2591 34.1639C13.4746 29.7409 15.2112 26.7195 16.8742 24.8009C17.7101 23.8364 18.5306 23.1479 19.1349 22.7046C19.4366 22.4833 19.6827 22.3243 19.8476 22.2237C19.93 22.1734 19.9919 22.1378 20.0301 22.1164C20.0419 22.1098 20.0515 22.1045 20.0586 22.1006C20.063 22.0982 20.0665 22.0963 20.0691 22.0949Z" fill="#262626"/>
<path fill-rule="evenodd" clip-rule="evenodd" d="M14.9605 4.00358C12.7388 5.14061 12.6261 8.2485 14.7306 9.55333L14.7382 9.55803C14.9032 9.65947 15.0785 9.76978 15.2621 9.88853C1.09764 18.8937 -3.80965 37.3124 4.01514 52.1765C3.69366 52.2164 3.37124 52.2563 3.06054 52.2944L3.0587 52.2946L2.79716 52.327C0.443371 52.6128 -0.754235 55.2641 0.514362 57.2215C11.6249 74.5058 34.9846 79.6712 52.5016 67.8722C67.7303 57.6256 73.1561 37.3767 65.0907 20.8881C55.8552 1.9931 33.194 -5.239 14.9681 3.99983L14.9605 4.00358ZM19.6466 14.6769C19.9412 14.5068 20.2379 14.3431 20.5362 14.1858C21.3334 14.9606 22.3915 16.0516 23.5209 17.3866C25.6068 19.8525 27.8477 23.0487 29.1915 26.5478C28.1956 26.7864 27.2167 27.1709 26.2841 27.7092C21.0844 30.7118 19.3028 37.3608 22.3048 42.5609C22.747 43.327 23.2684 44.0188 23.8527 44.6321C20.6602 47.1543 16.841 48.8786 13.5651 50.0074C12.5017 50.3737 11.5087 50.6731 10.6306 50.9139C10.4666 50.6519 10.3067 50.3857 10.1508 50.1157C2.98683 37.7075 7.23825 21.8409 19.6466 14.6769ZM36.3322 27.2783C36.7736 25.0666 37.0882 22.8216 37.2706 20.5549C37.5526 20.4623 37.8293 20.3395 38.0968 20.185C40.189 18.977 40.9058 16.3016 39.6979 14.2093C38.4899 12.117 35.8146 11.4001 33.7224 12.6081C31.6302 13.8162 30.9133 16.4916 32.1213 18.5839C32.5938 19.4025 33.2911 20.0107 34.0903 20.3753C33.9248 22.3924 33.6492 24.3912 33.2667 26.363C34.3267 26.516 35.3605 26.8242 36.3322 27.2783ZM25.9819 40.4379C24.1524 37.2686 25.2381 33.2163 28.4072 31.3864C31.5761 29.5567 35.6284 30.6426 37.4581 33.8119C39.288 36.9811 38.2019 41.0336 35.033 42.8633C31.8639 44.693 27.8116 43.6071 25.9819 40.4379Z" fill="#262626"/>
<path d="M137.893 10.2839C138.116 10.2782 138.805 10.2787 139.331 10.862C139.785 11.3654 139.798 11.9829 139.805 12.1133C139.814 12.3028 139.807 12.6005 139.807 12.7661C139.807 13.3637 139.769 13.9371 139.735 14.4561C139.7 14.9893 139.669 15.4723 139.669 15.9705C139.669 17.9172 139.826 22.5699 139.985 26.9937C140.141 31.3687 140.302 35.5502 140.302 36.4509C140.302 37.1693 139.929 37.7098 139.702 37.9902C139.445 38.3088 139.132 38.5851 138.865 38.8009C138.59 39.0231 138.304 39.2283 138.074 39.3913C137.818 39.573 137.667 39.6784 137.573 39.7543C136.43 40.676 135.212 41.4731 134.029 42.2166C132.823 42.9744 131.686 43.658 130.583 44.4122C129.328 45.2706 128.085 46.095 126.824 46.8848C128.376 46.8987 129.904 46.9315 131.446 46.8403C133.279 46.7319 134.966 46.4514 136.427 45.8144C136.898 45.6093 137.44 45.6566 137.869 45.9404C138.297 46.2244 138.555 46.7068 138.555 47.2239C138.555 48.0322 138.519 48.8326 138.485 49.5919C138.45 50.3629 138.418 51.0928 138.418 51.818C138.418 53.8489 138.358 55.7258 138.49 57.6165C138.609 59.3027 138.604 60.7799 138.956 62.0596C138.968 62.0862 138.983 62.1205 139.003 62.1624C139.059 62.2825 139.13 62.4319 139.205 62.5911C139.278 62.7439 139.355 62.9078 139.413 63.037C139.441 63.0985 139.473 63.1716 139.5 63.2386C139.511 63.2667 139.535 63.3286 139.558 63.4018C139.567 63.4313 139.593 63.519 139.611 63.6325C139.619 63.6853 139.635 63.807 139.626 63.9617C139.62 64.0545 139.594 64.4675 139.275 64.8537L139.243 64.8911C138.957 65.2152 138.62 65.3438 138.457 65.3956C138.271 65.4549 138.098 65.4793 137.976 65.4911C137.731 65.515 137.481 65.5071 137.297 65.4968C137.103 65.4859 136.911 65.4675 136.775 65.4548C136.595 65.438 136.568 65.4373 136.588 65.4373C135.578 65.4373 134.538 65.5241 133.446 65.6355C132.379 65.7444 131.226 65.881 130.104 65.9587C126.081 66.2373 122.048 66.2336 118.063 66.2022C114.061 66.1707 110.118 66.1116 106.192 66.2699C103.578 66.3753 100.967 66.5421 98.3864 66.8185C97.9432 66.866 97.5001 66.895 97.1005 66.9228C96.7018 66.9506 96.3381 66.9779 95.9846 67.0203C95.9727 67.0228 95.9529 67.0271 95.9226 67.0335C95.8538 67.0481 95.737 67.0725 95.6101 67.0914C95.4932 67.1088 95.3002 67.1324 95.0852 67.121C94.9336 67.113 94.4274 67.0776 93.9891 66.6801C93.6951 66.4133 93.5775 66.1056 93.538 65.9955C93.4862 65.851 93.4592 65.7197 93.4444 65.6349C93.4144 65.464 93.4019 65.2912 93.3948 65.1808C93.3909 65.12 93.3877 65.0594 93.3851 65.0107C93.3822 64.9585 93.38 64.9194 93.3777 64.8859C93.3776 64.8839 93.3774 64.8818 93.3772 64.8799C93.2503 64.3617 93.2645 63.8574 93.277 63.5396C93.2939 63.1082 93.3094 62.9386 93.293 62.7709C93.2034 61.8568 93.1829 60.9334 93.154 60.1041C93.1243 59.2499 93.0856 58.4687 92.9732 57.7133C92.7941 56.5094 92.4403 55.3159 92.0705 53.9847C92.0093 53.7644 91.9474 53.4465 91.9985 53.084C92.0569 52.6701 92.2411 52.3396 92.4631 52.0954C92.6394 51.9015 92.8384 51.7692 92.8817 51.739C92.9618 51.6834 92.9674 51.679 92.9748 51.6727C93.3067 51.3896 93.6225 51.0837 93.9908 50.7316C94.3454 50.3925 94.7444 50.0148 95.1826 49.6615C100.935 45.0228 106.916 40.4794 113.108 36.3813C114.447 35.4953 115.764 34.5514 117.064 33.5748C114.292 33.7503 111.485 34.1188 108.638 34.4422C106.142 34.7256 103.627 34.9958 101.086 35.1655L100.578 35.198C98.8192 35.3057 97.2075 35.3834 95.6137 35.6709C95.2379 35.7387 94.9749 35.8116 94.4731 35.9161C94.0434 36.0056 93.5219 36.0965 92.9706 36.0965C92.7025 36.0965 92.0238 36.0234 91.5964 35.3609C91.2341 34.7991 91.3508 34.2356 91.3751 34.1182C91.4032 33.9829 91.4468 33.8592 91.4674 33.8036C91.6662 32.858 91.8177 31.9482 91.9151 31.0047C92.0965 29.2464 92.4958 27.4528 92.7731 25.8832C93.514 21.6894 93.7601 17.4247 94.1496 13.0361C94.22 12.2443 94.8783 11.6375 95.6669 11.6375C96.3231 11.6375 97.1356 11.8537 97.5746 11.9524C97.8492 12.0141 98.0676 12.0574 98.2496 12.0784C98.4408 12.1005 98.5034 12.0867 98.4873 12.0902C100.916 11.5708 103.386 11.3365 105.704 11.0633C110.429 10.5067 115.2 10.6017 119.883 10.7772C124.6 10.9541 129.2 11.2107 133.746 11.0157C134.212 10.9957 134.692 10.9062 135.255 10.7781C135.779 10.6587 136.449 10.4864 137.103 10.3784C137.331 10.3408 137.631 10.2906 137.893 10.2839ZM157.652 8.22611C159.463 8.18524 161.087 8.37727 162.512 8.5919C162.678 8.61685 162.836 8.67129 162.981 8.75063C169.4 10.0742 173.966 13.7081 176.66 17.4817C180.929 23.4637 182.691 31.0821 182.691 36.382C182.691 44.3043 180.789 48.505 179.843 52.4309C178.974 56.0368 176.641 59.1479 173.888 61.4468C171.13 63.7501 167.743 65.4149 164.453 65.9795C163.903 66.0741 163.595 66.1579 163.026 66.2826C162.467 66.405 161.849 66.519 160.951 66.6015C159.398 66.7443 156.912 66.6033 154.659 66.3148C153.506 66.1672 152.343 65.9721 151.319 65.732C150.36 65.5073 149.29 65.1925 148.477 64.7211C145.506 62.9978 143.094 61.324 140.878 58.8449C140.855 58.4345 140.83 57.9753 140.793 57.4515C140.668 55.6705 140.726 53.9483 140.726 51.8179C140.726 51.1547 140.756 50.4778 140.791 49.698C140.821 49.0411 140.854 48.3057 140.862 47.5491L140.864 47.2237C140.864 45.919 140.212 44.7038 139.134 43.9896L139.083 43.9565C138.307 43.4597 137.39 43.2675 136.5 43.3935C137.33 42.8455 138.185 42.2454 139.013 41.5774C139.018 41.5738 139.042 41.5557 139.102 41.5127C139.175 41.4603 139.265 41.3963 139.4 41.3007C139.632 41.1362 139.971 40.8945 140.307 40.6224C140.625 40.3657 141.083 39.9702 141.491 39.4652C141.821 39.0566 142.61 37.9879 142.61 36.4508C142.61 35.4937 142.447 31.233 142.292 26.9091C142.132 22.4624 141.978 17.8637 141.978 15.9704C141.978 15.7102 141.988 15.4503 142.005 15.1563C144.022 13.2209 146.446 11.4337 148.685 10.3988C152.057 8.83958 155.005 8.28584 157.652 8.22611ZM248.435 8.21316C254.561 8.21317 262.368 8.71633 268.462 9.49766C268.639 9.5203 268.883 9.5504 269.095 9.60233C269.307 9.65447 269.725 9.77997 270.07 10.1595C270.425 10.5497 270.508 10.9922 270.536 11.227C270.563 11.4489 270.561 11.6984 270.561 11.8638V13.796C270.561 15.2458 270.481 17.5893 270.402 19.8896C270.322 22.2157 270.244 24.499 270.244 25.8916C270.244 27.8698 269.98 31.5752 269.724 35.0885C269.528 37.7696 269.339 40.3297 269.255 42.06C270.03 42.0709 270.766 42.0665 271.055 42.0341C276.03 41.4737 284.347 41.6614 290.47 42.0976C290.964 42.1328 291.406 42.4187 291.645 42.8569C291.884 43.2951 291.886 43.8258 291.651 44.2661C290.452 46.5153 290.492 49.5723 290.746 53.2295C290.985 56.6799 291.42 60.6884 290.467 64.0527C290.288 64.6847 289.716 65.1204 289.065 65.1204C288.399 65.1204 285.818 65.1303 285.114 65.1203C279.145 65.0351 273.162 64.9824 267.197 64.9824C262.686 64.9824 258.519 64.6836 254.224 65.0463C253.547 65.1035 252.868 65.1889 252.157 65.2793C251.476 65.3658 250.763 65.457 250.043 65.5225C249.99 65.5338 250.006 65.531 249.907 65.5523C249.782 65.5793 249.585 65.62 249.376 65.6436C249.209 65.6625 248.848 65.6957 248.473 65.5921C248.272 65.5363 247.945 65.4088 247.668 65.1004C247.356 64.7549 247.236 64.3278 247.251 63.9372L247.291 62.8224C247.42 59.2346 247.508 56.2815 247.569 53.6175C247.86 53.48 248.15 53.3368 248.438 53.1872C250.99 51.8641 253.399 50.2559 255.405 47.8861L255.499 47.7738C257.471 45.4066 258.869 42.4995 259.787 38.824C260.18 37.251 260.431 34.8659 260.531 32.699C260.629 30.5877 260.616 28.0642 260.238 26.3314C258.305 17.4707 254.212 11.6809 247.736 8.3936C247.948 8.27629 248.189 8.21317 248.435 8.21316ZM175.864 8.18319C181.99 8.18319 189.797 8.68636 195.891 9.46769C196.068 9.49032 196.312 9.52044 196.524 9.57236C196.736 9.62449 197.154 9.75 197.499 10.1295C197.854 10.5197 197.937 10.9622 197.965 11.197C197.992 11.419 197.99 11.6684 197.99 11.8338V13.766C197.99 15.1229 198.085 16.4861 198.185 17.9119C198.284 19.3204 198.388 20.791 198.388 22.2764C198.388 28.0379 197.746 33.7628 196.215 39.3458C195.971 40.234 195.631 41.1696 195.168 42.0522C200.447 41.5587 211.983 41.6462 217.899 42.0676C218.393 42.1028 218.835 42.3888 219.074 42.8269C219.312 43.2651 219.315 43.7958 219.08 44.2361C217.88 46.4853 217.921 49.5424 218.174 53.1995C218.413 56.6499 218.849 60.6584 217.896 64.0227C217.717 64.6547 217.145 65.0904 216.494 65.0904C215.828 65.0904 213.246 65.1004 212.543 65.0903C206.574 65.0052 200.591 64.9525 194.626 64.9525C190.115 64.9524 185.948 64.6536 181.653 65.0164C180.976 65.0735 180.297 65.1589 179.586 65.2493C178.902 65.3362 178.185 65.4279 177.461 65.4935C177.444 65.4969 177.425 65.501 177.399 65.5065C177.372 65.512 177.34 65.5186 177.306 65.5254C177.176 65.5516 176.977 65.5897 176.769 65.6116C176.612 65.6282 176.243 65.6624 175.867 65.5566C175.669 65.5009 175.29 65.3574 174.997 64.9716C174.7 64.5789 174.643 64.1388 174.689 63.7841C174.916 63.608 175.139 63.4282 175.359 63.2449C178.376 60.7256 181.067 57.2104 182.086 52.9827L182.127 52.8131C183.016 49.235 184.999 44.5474 184.999 36.382C184.999 30.6729 183.128 22.5572 178.532 16.1173C177.442 14.5899 176.08 13.0896 174.451 11.7285C174.437 11.0488 174.422 10.3694 174.406 9.69069C174.397 9.29419 174.547 8.91061 174.821 8.6269C175.095 8.34322 175.471 8.18323 175.864 8.18319ZM308.448 9.22719C309.194 9.18571 309.995 9.14509 310.813 9.16425C310.996 9.16855 311.353 9.18542 311.717 9.29073C311.99 9.36984 312.805 9.65317 313.093 10.5557L313.106 10.5991L313.154 10.7573C313.651 12.3827 314.351 13.7363 315.074 15.5703C317.451 21.595 318.874 27.9108 320.336 34.0246C321.444 38.6597 322.372 43.1382 323.882 47.4953C324.878 50.3678 327.506 59.8152 328.185 62.7488C328.289 63.1942 328.185 63.6629 327.903 64.0214C327.622 64.3799 327.193 64.5889 326.74 64.5889H319.279C317.526 64.589 315.64 64.7324 313.483 64.8824C311.345 65.0312 308.98 65.183 306.359 65.183C305.614 65.183 304.984 64.6255 304.887 63.8798C304.453 60.5519 304.243 59.1813 303.851 56.081C302.242 56.0674 300.254 56.0636 299.184 56.0627C299.051 56.3522 298.9 56.7325 298.746 57.1624C298.371 58.2067 298.043 59.3403 297.963 59.6554C297.463 61.6226 297.45 61.7651 296.576 64.4777C296.377 65.095 295.808 65.513 295.165 65.5131C294.491 65.5131 293.353 65.4899 292.363 65.4869C292.498 65.2398 292.607 64.9747 292.686 64.6947C293.78 60.8344 293.273 56.3076 293.049 53.0667C292.787 49.2918 292.852 46.9321 293.683 45.3726C294.29 44.2351 294.284 42.8642 293.667 41.7323L293.638 41.6794C293.015 40.5774 291.888 39.8603 290.633 39.7708C288.027 39.5852 285.004 39.4424 281.99 39.3834C283.476 34.5859 285.091 29.9801 286.787 25.4013C286.833 25.2688 286.89 25.1162 286.938 24.9957C288.67 20.334 290.486 15.6953 292.332 10.9059C292.51 10.3331 292.941 10.0289 293.136 9.91056C293.396 9.75355 293.673 9.66055 293.89 9.60077C294.338 9.47728 294.892 9.39948 295.459 9.34528C296.614 9.23487 298.112 9.19753 299.598 9.19362C301.095 9.18969 302.621 9.21976 303.848 9.25057C305.104 9.28212 305.989 9.31243 306.285 9.31243C306.985 9.31243 307.685 9.2696 308.448 9.22719ZM93.3954 64.9497L93.4056 64.9876C93.4016 64.9735 93.3981 64.9593 93.3943 64.9453C93.3947 64.9467 93.395 64.9482 93.3954 64.9497ZM222.496 7.20165C232.033 6.91054 239.941 7.3454 245.947 10.1137C252.113 12.9558 256.091 18.1593 257.984 26.8335C258.291 28.2404 258.323 30.4951 258.225 32.5896C258.127 34.7061 257.884 36.9074 257.548 38.2532C256.685 41.7114 255.397 44.3077 253.651 46.3699C251.911 48.4253 249.787 49.8661 247.384 51.1119C242.684 53.5489 237.572 54.2172 232.535 53.475C232.494 55.3729 232.546 57.3907 232.669 59.2801C232.69 59.5972 232.696 59.9342 232.701 60.2417C232.706 60.5617 232.711 60.86 232.726 61.153C232.757 61.7642 232.828 62.1848 232.941 62.4536C232.989 62.5666 233.104 62.8469 233.112 63.1885C233.117 63.3859 233.088 63.6702 232.933 63.9659C232.77 64.2771 232.528 64.4848 232.296 64.6099C231.926 64.8087 231.557 64.8034 231.512 64.8043C231.454 64.8055 231.398 64.8044 231.367 64.8039C231.329 64.8033 231.308 64.8028 231.285 64.8028C228.538 64.8028 225.353 65.0562 222.356 64.8748C221.612 64.8297 220.868 64.808 220.124 64.8027C220.134 64.7722 220.143 64.7414 220.152 64.7105L220.202 64.5291C221.23 60.7091 220.735 56.2728 220.514 53.0825C220.253 49.3077 220.317 46.948 221.149 45.3885C221.756 44.2509 221.749 42.88 221.133 41.7481L221.133 41.748C220.516 40.6162 219.374 39.8775 218.098 39.7866C215.655 39.6126 212.27 39.4939 208.748 39.4489C209.611 27.5306 210.595 15.3684 210.792 12.2208L210.798 12.1502C210.816 11.9861 210.862 11.826 210.932 11.6768C211.438 10.6114 212.396 9.86982 213.341 9.34816C214.313 8.81211 215.452 8.41003 216.569 8.10826C218.801 7.50499 221.174 7.24203 222.496 7.20165ZM326.883 7.61216C326.909 7.60961 326.994 7.60158 327.101 7.607C327.152 7.60956 327.266 7.61747 327.404 7.65412C327.495 7.67804 327.87 7.77927 328.173 8.14675L328.173 8.14687C328.78 8.88161 329.319 10.0347 329.72 11.0231C330.14 12.0598 330.491 13.1242 330.683 13.8222C331.724 17.5993 332.215 19.3154 332.974 22.3109C333.092 22.7765 333.195 23.2098 333.286 23.6091C333.299 23.568 333.311 23.5265 333.324 23.4845C334.476 19.6358 335.882 15.6793 336.637 11.2787C336.696 10.9349 336.844 10.5131 337.198 10.1647C337.555 9.81233 337.966 9.68954 338.254 9.64657C338.517 9.60743 338.759 9.6235 338.869 9.63062C339.028 9.64102 339.058 9.64501 339.108 9.64501C342.416 9.64501 345.303 9.82622 348.468 9.64729C349.79 9.57258 351.25 9.56252 352.595 9.52392C353.976 9.48427 355.29 9.4143 356.478 9.22959C356.632 9.20549 356.655 9.19665 356.889 9.1573C357.041 9.13178 357.291 9.09277 357.55 9.09651C357.736 9.09922 358.351 9.1191 358.844 9.61336C359.454 10.226 359.366 10.994 359.268 11.36C359.12 11.9106 358.712 12.9601 358.242 14.1117C357.755 15.3059 357.152 16.7264 356.567 18.0853C355.981 19.4454 355.41 20.7498 354.986 21.7137C354.774 22.1958 354.598 22.5932 354.476 22.8701C354.415 23.0085 354.366 23.1169 354.334 23.1908C354.317 23.2276 354.305 23.2559 354.296 23.275C354.292 23.2846 354.289 23.292 354.287 23.2969C354.286 23.2993 354.285 23.3011 354.284 23.3024C354.284 23.3029 354.284 23.3034 354.283 23.3037L354.283 23.3042L354.283 23.3043C354.271 23.3311 354.259 23.3577 354.245 23.3838C352.126 27.4848 350.244 30.6 348.592 33.2488C346.929 35.9155 345.547 38.0363 344.356 40.2458C344.25 40.4413 344.173 40.5863 344.115 40.6955C344.182 40.9987 344.219 41.3629 344.219 41.8411C344.219 44.5052 344.328 47.1386 344.405 49.8543C344.461 51.8255 344.212 54.0545 344.114 55.943C344.01 57.9353 344.05 59.7267 344.545 61.3028C344.56 61.3523 344.596 61.4292 344.689 61.5907C344.726 61.6541 344.952 62.0116 345.056 62.3393C345.119 62.5361 345.213 62.929 345.08 63.3889C344.93 63.9071 344.576 64.2333 344.255 64.4101C343.971 64.5659 343.687 64.6241 343.492 64.6519C343.281 64.682 343.058 64.6918 342.836 64.6918C342.213 64.6918 341.611 64.6536 341.049 64.6133C340.473 64.5719 339.954 64.5297 339.421 64.5103C336.643 64.4088 333.899 64.5006 331.019 64.5006C330.778 64.5006 330.526 64.5031 330.264 64.5066C330.547 63.787 330.612 62.9887 330.433 62.2174C329.741 59.2254 327.091 49.6948 326.061 46.7244C324.601 42.5111 323.711 38.207 322.58 33.4769C321.132 27.4201 319.67 20.9198 317.219 14.7065C316.382 12.5848 315.83 11.606 315.363 10.0792L315.316 9.92399L315.31 9.90457L315.297 9.86105C315.295 9.85384 315.292 9.84654 315.29 9.83935C315.231 9.65427 315.162 9.48107 315.086 9.31891C315.361 9.28606 315.637 9.25372 315.913 9.2218C319.17 8.84459 322.22 8.70318 325.203 8.05527C325.169 8.06256 325.46 7.98115 325.888 7.86141C326.074 7.80944 326.262 7.75709 326.405 7.71802C326.475 7.69875 326.54 7.68122 326.59 7.66826C326.613 7.66227 326.643 7.65448 326.672 7.64764C326.683 7.645 326.715 7.63755 326.753 7.6305C326.766 7.62797 326.818 7.61853 326.883 7.61216ZM157.985 31.7835C157.397 31.6968 156.734 31.9656 156.104 32.4281C155.502 32.8705 154.975 33.4581 154.637 33.9549L154.572 34.053C153.801 35.2489 153.399 36.8889 153.382 38.5587C153.364 40.2281 153.731 41.8903 154.456 43.1268C155.035 44.1135 155.751 44.7735 156.58 45.1371C157.411 45.5009 158.382 45.5797 159.493 45.3574L159.556 45.3441C160.881 45.0558 161.82 44.1179 162.395 42.818L162.449 42.693C162.993 41.3899 163.173 39.766 163.008 38.1619C162.843 36.5578 162.336 35.0015 161.537 33.8307L161.459 33.7185C160.63 32.5568 159.518 31.8226 158.165 31.7984C158.105 31.7973 158.045 31.7923 157.985 31.7835ZM302.379 27.8118C302.337 27.7342 301.733 29.0571 301.728 29.0801C300.657 31.6022 299.862 33.8148 298.796 37.0989C298.641 37.5772 298.405 38.0549 298.183 38.5006C298.048 38.7704 298.977 38.65 299.093 38.6461C300.17 38.6103 300.747 38.6461 301.827 38.6461C303.017 38.6461 305.58 38.5012 305.591 38.5006C305.583 38.4729 303.078 29.11 302.379 27.8118ZM230.856 27.1193C230.275 27.1194 230.148 28.5829 230.148 28.5865C229.525 33.0239 229.526 33.626 229.36 36.2041C229.332 36.6471 230.814 36.9407 232.559 36.9407C236.052 36.9407 238.13 35.2816 238.457 31.6617C238.623 29.8202 237.415 27.8156 235.633 27.4057C234.642 27.1779 231.869 27.1193 230.856 27.1193Z" fill="#262626"/>
</svg>
