<svg width="597" height="165" viewBox="0 0 597 165" fill="none" xmlns="http://www.w3.org/2000/svg">
<path d="M291.299 26.6787C291.294 26.7336 290.936 31.1773 290.458 39.5371C297.548 35.8118 307.042 32.8067 314.492 32.8066V32.9268C335.402 32.9268 348.621 46.1464 348.621 80.5156C348.621 114.885 333.359 128.104 314.492 128.104C306.08 128.103 295.145 125.099 287.935 121.734V133.511C287.935 151.249 293.553 164.924 293.582 164.996H253.686C253.699 164.936 256.693 151.616 258.132 133.511C259.213 121.493 260.415 91.5704 257.892 62.8496C256.81 49.3904 251.522 33.0469 251.522 33.0469L291.299 26.6787ZM596.174 31.6055C596.118 31.7577 571.53 98.8073 563.728 121.374C560.002 132.19 549.307 164.756 549.307 164.756H508.448L536.208 119.211L521.908 117.648C521.908 117.648 512.414 79.6738 504.002 52.0342C499.916 38.5752 493.307 31.7256 493.307 31.7256H534.405L546.303 94.6953C546.331 94.6033 553.998 69.657 555.917 46.3867C556.638 37.1383 553.036 31.7313 553.032 31.7256H596.054L596.174 31.6055ZM149.857 32.8066C194.922 32.8068 194.922 54.0779 194.922 80.3955C194.922 106.713 195.042 127.983 149.857 127.983C104.673 127.983 104.673 106.713 104.673 80.3955C104.673 54.0778 104.673 32.8066 149.857 32.8066ZM456.175 30.6436C475.522 28.3604 494.87 35.0904 494.87 70.9014V102.507C494.87 117.048 500.879 125.58 500.879 125.58H461.102L458.818 116.446C454.132 123.416 442.234 131.468 423.007 126.181C403.419 120.773 401.857 101.785 406.904 92.4121C414.956 77.2706 437.909 69.9398 458.818 69.0986V60.3262C458.818 47.8285 440.071 47.4684 440.071 61.2881V65.4941L410.87 73.1846L407.145 39.5371C411.11 38.6959 434.063 33.1672 456.175 30.6436ZM241.786 0.120117C241.786 0.120117 238.421 15.6227 238.421 84.7217C238.421 102.627 244.069 125.7 244.069 125.7H204.173C204.173 125.7 207.177 114.043 208.619 95.8975C209.701 83.8803 211.143 62.2493 208.619 33.5283C207.419 20.0888 204.542 6.40917 204.533 6.36914L241.786 0V0.120117ZM394.527 0.120117C394.527 0.120117 391.162 15.6227 391.162 84.7217C391.162 102.627 396.811 125.7 396.811 125.7H356.913C356.913 125.7 359.917 114.043 361.359 95.8975C362.441 83.8803 363.883 62.2493 361.359 33.5283C360.158 20.069 357.273 6.36914 357.273 6.36914L394.527 0V0.120117ZM49.0303 108.756L93.8545 86.8848L89.6484 124.979H0L49.0303 52.0342L1.80273 75.8281L6.24902 36.292H97.9404L49.0303 108.756ZM149.857 49.751C145.051 49.751 141.205 53.5966 141.205 58.4033V102.387C141.205 107.194 145.171 111.039 149.857 111.039C154.544 111.039 158.51 107.193 158.51 102.387V58.4033C158.51 53.5967 154.664 49.7512 149.857 49.751ZM302.114 49.751C297.428 49.7512 293.582 53.5967 293.582 58.4033V102.387C293.582 107.193 297.308 111.039 302.114 111.039C306.921 111.039 310.767 107.194 310.767 102.387V58.4033C310.766 53.5966 306.801 49.751 302.114 49.751ZM458.818 84.2402C454.612 83.7596 445.96 85.5628 441.634 93.6143C437.188 102.267 445.84 111.64 458.818 102.267V84.2402Z" fill="#262626"/>
</svg>
