<svg width="268" height="60" viewBox="0 0 268 60" fill="none" xmlns="http://www.w3.org/2000/svg">
<path d="M46.5548 3.15988C46.7778 3.15418 47.4671 3.15471 47.9933 3.73799C48.4474 4.24142 48.4605 4.85886 48.4668 4.98928C48.4761 5.1788 48.4695 5.47649 48.4695 5.64208C48.4695 6.23969 48.4311 6.81305 48.3972 7.33204C48.3623 7.86525 48.3316 8.34832 48.3316 8.84649C48.3316 10.7932 48.4881 15.4459 48.6467 19.8696C48.8036 24.2447 48.9639 28.4262 48.9639 29.3269C48.9639 30.0453 48.5909 30.5858 48.3643 30.8662C48.1069 31.1848 47.7945 31.4611 47.5275 31.6769C47.2525 31.8991 46.966 32.1043 46.7361 32.2673C46.4799 32.449 46.3295 32.5544 46.2354 32.6302C45.0923 33.552 43.874 34.3491 42.6912 35.0925C41.4854 35.8504 40.3477 36.534 39.245 37.2882C37.9899 38.1466 36.7471 38.9709 35.4858 39.7608C37.0377 39.7747 38.5665 39.8075 40.1078 39.7163C41.9411 39.6079 43.6283 39.3274 45.0896 38.6904C45.5604 38.4852 46.102 38.5326 46.5307 38.8164C46.9594 39.1003 47.2176 39.5828 47.2176 40.0998C47.2176 40.9082 47.1812 41.7085 47.147 42.4679C47.1122 43.2388 47.0797 43.9688 47.0797 44.694C47.0797 46.7248 47.0198 48.6017 47.1524 50.4925C47.2707 52.1787 47.2665 53.6559 47.618 54.9356C47.63 54.9621 47.6455 54.9964 47.665 55.0384C47.7209 55.1584 47.7921 55.3078 47.8674 55.4671C47.9397 55.6199 48.0168 55.7838 48.0751 55.913C48.1028 55.9745 48.1351 56.0476 48.1619 56.1146C48.1731 56.1427 48.1976 56.2046 48.2199 56.2778C48.2289 56.3072 48.2555 56.395 48.2727 56.5084C48.2808 56.5613 48.2971 56.683 48.2878 56.8377C48.2822 56.9304 48.2565 57.3434 47.9371 57.7296L47.9053 57.767C47.6194 58.0912 47.2819 58.2198 47.1193 58.2715C46.9329 58.3309 46.7599 58.3552 46.638 58.3671C46.3927 58.3909 46.1432 58.383 45.959 58.3727C45.7651 58.3619 45.5727 58.3435 45.4369 58.3308C45.2573 58.314 45.2296 58.3133 45.2499 58.3133C44.2397 58.3133 43.1999 58.4001 42.1084 58.5114C41.0407 58.6203 39.8881 58.757 38.7666 58.8347C34.7432 59.1133 30.7101 59.1095 26.7252 59.0782C22.7233 59.0466 18.7804 58.9876 14.8537 59.1459C12.24 59.2513 9.62956 59.4181 7.04852 59.6945C6.60526 59.742 6.16224 59.7709 5.76259 59.7988C5.3639 59.8266 5.00019 59.8539 4.64668 59.8963C4.63482 59.8988 4.61498 59.9031 4.58474 59.9095C4.51592 59.9241 4.39916 59.9485 4.27222 59.9674C4.15528 59.9848 3.96228 60.0084 3.7473 59.997C3.59574 59.9889 3.08948 59.9536 2.65121 59.556C2.35718 59.2893 2.23957 58.9816 2.2001 58.8715C2.14832 58.7269 2.12135 58.5956 2.10649 58.5108C2.07655 58.34 2.06396 58.1672 2.05689 58.0568C2.05299 57.996 2.0498 57.9353 2.04716 57.8867C2.04433 57.8344 2.04208 57.7954 2.0398 57.7619C2.03966 57.7598 2.03946 57.7578 2.03933 57.7559C1.91236 57.2377 1.92657 56.7334 1.93907 56.4155C1.95604 55.9841 1.97151 55.8145 1.95509 55.6469C1.86552 54.7327 1.84501 53.8094 1.81615 52.9801C1.78642 52.1259 1.74773 51.3447 1.63532 50.5892C1.45617 49.3854 1.10241 48.1918 0.73263 46.8607C0.671447 46.6404 0.609518 46.3224 0.660609 45.9599C0.718963 45.5461 0.903227 45.2156 1.12524 44.9713C1.30148 44.7775 1.50048 44.6452 1.54384 44.615C1.62388 44.5594 1.62952 44.555 1.63687 44.5487C1.96883 44.2656 2.28465 43.9597 2.65287 43.6076C3.00752 43.2685 3.40653 42.8908 3.84472 42.5374C9.59724 37.8987 15.5785 33.3554 21.7701 29.2573C23.1087 28.3712 24.4263 27.4274 25.7259 26.4508C22.9537 26.6263 20.1469 26.9948 17.2998 27.3182C14.8042 27.6016 12.289 27.8718 9.7483 28.0414L9.23976 28.0739C7.48134 28.1817 5.86965 28.2594 4.27577 28.5469C3.90003 28.6147 3.63701 28.6876 3.13519 28.7921C2.70554 28.8815 2.18403 28.9725 1.63271 28.9725C1.36463 28.9725 0.685862 28.8994 0.258502 28.2369C-0.103808 27.6751 0.0128704 27.1116 0.0372182 26.9942C0.0652962 26.8589 0.108903 26.7352 0.129528 26.6796C0.328342 25.7339 0.479844 24.8242 0.577197 23.8807C0.758622 22.1223 1.15786 20.3288 1.43516 18.7592C2.1761 14.5653 2.42218 10.3007 2.81174 5.91207C2.88208 5.1203 3.5404 4.51349 4.32905 4.51343C4.98517 4.51343 5.79774 4.72969 6.23671 4.82838C6.51126 4.89011 6.72974 4.93333 6.91172 4.95439C7.10287 4.97651 7.16552 4.96269 7.14937 4.96614C9.5784 4.44679 12.048 4.21244 14.3665 3.93928C19.0906 3.38271 23.8625 3.47763 28.5453 3.65322C33.2625 3.83011 37.8618 4.08666 42.4077 3.89169C42.8745 3.87166 43.354 3.78221 43.9168 3.65406C44.4411 3.53471 45.1113 3.36238 45.7651 3.25435C45.9927 3.21674 46.2926 3.16658 46.5548 3.15988ZM66.3138 1.10209C68.1256 1.06121 69.7489 1.25325 71.1746 1.46787C71.3403 1.49283 71.4986 1.54727 71.643 1.62661C78.0619 2.95015 82.6285 6.58404 85.3219 10.3577C89.5913 16.3396 91.3527 23.9581 91.3528 29.258C91.3527 37.1803 89.4509 41.381 88.505 45.3069C87.6362 48.9128 85.3032 52.0239 82.5503 54.3227C79.7921 56.6261 76.4052 58.2909 73.1154 58.8555C72.5647 58.9501 72.2568 59.0339 71.6877 59.1586C71.1291 59.281 70.511 59.3949 69.6131 59.4775C68.0606 59.6203 65.5741 59.4793 63.3207 59.1907C62.1683 59.0431 61.0055 58.8481 59.9807 58.608C59.0216 58.3832 57.9521 58.0684 57.1393 57.597C54.168 55.8738 51.7558 54.1999 49.5404 51.7209C49.5175 51.3105 49.4919 50.8513 49.4552 50.3275C49.3303 48.5465 49.3882 46.8243 49.3882 44.6939C49.3882 44.0306 49.4179 43.3538 49.4531 42.574C49.4827 41.9171 49.5163 41.1816 49.5243 40.4251L49.526 40.0997C49.526 38.795 48.8746 37.5798 47.7962 36.8656L47.7454 36.8325C46.969 36.3357 46.0517 36.1435 45.1618 36.2695C45.9923 35.7215 46.847 35.1214 47.6754 34.4534C47.6802 34.4498 47.704 34.4317 47.7638 34.3887C47.8367 34.3362 47.9272 34.2723 48.062 34.1767C48.294 34.0122 48.6329 33.7705 48.9696 33.4984C49.2871 33.2417 49.7446 32.8462 50.1526 32.3412C50.4827 31.9326 51.2723 30.8639 51.2723 29.3268C51.2723 28.3697 51.1087 24.109 50.9536 19.7851C50.7942 15.3384 50.6401 10.7396 50.6401 8.84637C50.6401 8.58615 50.6501 8.32627 50.6666 8.03232C52.6841 6.0969 55.1085 4.30964 57.347 3.27473C60.7196 1.71556 63.6674 1.16182 66.3138 1.10209ZM157.097 1.08914C163.223 1.08914 171.03 1.59231 177.125 2.37364C177.301 2.39628 177.545 2.42638 177.757 2.4783C177.97 2.53045 178.387 2.65594 178.732 3.03543C179.087 3.42565 179.17 3.86813 179.198 4.10293C179.225 4.32492 179.223 4.57438 179.223 4.73979V6.67193C179.223 8.12177 179.143 10.4652 179.064 12.7656C178.984 15.0916 178.906 17.375 178.906 18.7676C178.906 20.7458 178.642 24.4512 178.386 27.9645C178.191 30.6456 178.001 33.2056 177.917 34.936C178.692 34.9469 179.428 34.9425 179.717 34.9101C184.693 34.3497 193.009 34.5374 199.132 34.9736C199.626 35.0088 200.068 35.2947 200.307 35.7329C200.546 36.171 200.548 36.7018 200.313 37.142C199.114 39.3913 199.155 42.4483 199.408 46.1055C199.647 49.5558 200.082 53.5644 199.129 56.9287C198.95 57.5607 198.378 57.9964 197.728 57.9964C197.061 57.9964 194.48 58.0063 193.776 57.9963C187.808 57.9111 181.824 57.8584 175.859 57.8584C171.348 57.8584 167.181 57.5596 162.886 57.9223C162.209 57.9795 161.53 58.0648 160.819 58.1552C160.138 58.2418 159.425 58.333 158.705 58.3985C158.652 58.4098 158.668 58.407 158.569 58.4282C158.444 58.4553 158.247 58.496 158.038 58.5196C157.871 58.5384 157.511 58.5717 157.135 58.468C156.934 58.4123 156.608 58.2848 156.33 57.9764C156.019 57.6309 155.898 57.2038 155.913 56.8132L155.953 55.6983C156.083 52.1106 156.171 49.1574 156.231 46.4934C156.522 46.356 156.812 46.2127 157.1 46.0632C159.652 44.7401 162.061 43.1318 164.067 40.7621L164.162 40.6498C166.133 38.2826 167.531 35.3754 168.449 31.7C168.842 30.127 169.093 27.7419 169.193 25.575C169.291 23.4637 169.278 20.9402 168.9 19.2074C166.967 10.3467 162.874 4.55685 156.398 1.26957C156.611 1.15227 156.851 1.08915 157.097 1.08914ZM84.5261 1.05917C90.6521 1.05917 98.4589 1.56234 104.553 2.34367C104.73 2.3663 104.974 2.39642 105.186 2.44833C105.398 2.50046 105.816 2.62598 106.161 3.00546C106.516 3.39569 106.599 3.83815 106.627 4.07296C106.654 4.29495 106.652 4.54441 106.652 4.70981V6.64196C106.652 7.99883 106.747 9.36203 106.847 10.7879C106.946 12.1963 107.05 13.667 107.05 15.1523C107.05 20.9139 106.408 26.6388 104.877 32.2218C104.633 33.1099 104.293 34.0455 103.83 34.9282C109.109 34.4347 120.645 34.5222 126.561 34.9436C127.055 34.9788 127.497 35.2647 127.736 35.7029C127.974 36.1411 127.977 36.6718 127.742 37.1121C126.542 39.3613 126.583 42.4184 126.837 46.0755C127.075 49.5259 127.511 53.5344 126.558 56.8987C126.379 57.5307 125.807 57.9664 125.156 57.9664C124.49 57.9664 121.909 57.9763 121.205 57.9663C115.236 57.8811 109.253 57.8284 103.288 57.8284C98.777 57.8284 94.6099 57.5296 90.315 57.8923C89.6382 57.9495 88.9591 58.0349 88.2478 58.1253C87.5638 58.2122 86.8473 58.3039 86.1234 58.3695C86.1065 58.3729 86.087 58.377 86.0607 58.3824C86.0341 58.3879 86.0022 58.3946 85.9683 58.4014C85.8382 58.4275 85.6387 58.4657 85.4313 58.4876C85.2741 58.5042 84.905 58.5384 84.5289 58.4326C84.3312 58.3769 83.9517 58.2334 83.6596 57.8476C83.3622 57.4549 83.3048 57.0148 83.3508 56.6601C83.5777 56.4839 83.8013 56.3042 84.0209 56.1208C87.0376 53.6016 89.7291 50.0864 90.7478 45.8586L90.7893 45.6891C91.6785 42.111 93.6611 37.4233 93.6611 29.258C93.6611 23.5488 91.7904 15.4332 87.1941 8.99324C86.1039 7.4659 84.7426 5.96558 83.1132 4.60443C83.0988 3.92473 83.0841 3.24542 83.0685 2.56666C83.0593 2.17017 83.209 1.78659 83.4833 1.50288C83.7576 1.2192 84.1336 1.05921 84.5261 1.05917ZM217.11 2.10317C217.857 2.06168 218.657 2.02107 219.475 2.04023C219.658 2.04452 220.015 2.0614 220.379 2.16671C220.652 2.24581 221.467 2.52915 221.755 3.43167L221.769 3.47507L221.816 3.63332C222.313 5.25871 223.013 6.61227 223.737 8.4463C226.113 14.471 227.537 20.7867 228.998 26.9006C230.106 31.5357 231.035 36.0142 232.545 40.3713C233.54 43.2438 236.168 52.6912 236.848 55.6247C236.951 56.0702 236.847 56.5389 236.565 56.8974C236.284 57.2558 235.855 57.4649 235.402 57.4649H227.941C226.188 57.4649 224.302 57.6083 222.145 57.7584C220.007 57.9072 217.642 58.059 215.021 58.059C214.276 58.059 213.646 57.5015 213.549 56.7558C213.115 53.4279 212.905 52.0573 212.513 48.9569C210.905 48.9434 208.916 48.9396 207.846 48.9387C207.713 49.2282 207.562 49.6085 207.408 50.0383C207.033 51.0827 206.705 52.2162 206.625 52.5313C206.126 54.4985 206.112 54.6411 205.238 57.3537C205.04 57.971 204.47 58.389 203.827 58.389C203.153 58.389 202.015 58.3659 201.025 58.3629C201.16 58.1158 201.269 57.8507 201.349 57.5707C202.442 53.7104 201.935 49.1836 201.711 45.9427C201.449 42.1678 201.514 39.8081 202.345 38.2486C202.952 37.1111 202.946 35.7401 202.33 34.6083L202.3 34.5554C201.677 33.4534 200.55 32.7363 199.295 32.6468C196.689 32.4611 193.666 32.3183 190.652 32.2594C192.138 27.4619 193.753 22.8561 195.45 18.2773C195.495 18.1447 195.552 17.9922 195.6 17.8717C197.333 13.21 199.148 8.57125 200.994 3.78187C201.172 3.20906 201.603 2.90492 201.798 2.78654C202.058 2.62953 202.336 2.53652 202.552 2.47675C203 2.35325 203.554 2.27546 204.121 2.22126C205.276 2.11085 206.774 2.07351 208.26 2.0696C209.757 2.06567 211.283 2.09574 212.51 2.12655C213.766 2.1581 214.651 2.18841 214.947 2.18841C215.647 2.18841 216.347 2.14558 217.11 2.10317ZM2.05748 57.8257L2.06769 57.8636C2.0637 57.8495 2.06018 57.8353 2.05641 57.8212C2.05677 57.8227 2.05711 57.8242 2.05748 57.8257ZM131.158 0.0776304C140.695 -0.213479 148.603 0.221381 154.609 2.98963C160.775 5.83179 164.753 11.0353 166.646 19.7095C166.953 21.1164 166.985 23.3711 166.888 25.4656C166.789 27.5821 166.547 29.7834 166.21 31.1292C165.347 34.5873 164.059 37.1837 162.313 39.2459C160.573 41.3013 158.449 42.7421 156.046 43.9879C151.347 46.4248 146.234 47.0931 141.197 46.351C141.156 48.2489 141.209 50.2667 141.331 52.1561C141.352 52.4732 141.358 52.8102 141.363 53.1177C141.369 53.4377 141.373 53.736 141.388 54.029C141.419 54.6402 141.49 55.0608 141.603 55.3296C141.651 55.4426 141.766 55.7229 141.774 56.0645C141.779 56.2619 141.75 56.5462 141.595 56.8419C141.432 57.153 141.191 57.3608 140.958 57.4859C140.588 57.6847 140.219 57.6793 140.174 57.6802C140.116 57.6814 140.06 57.6804 140.029 57.6799C139.991 57.6792 139.97 57.6788 139.947 57.6788C137.2 57.6788 134.015 57.9322 131.018 57.7507C130.274 57.7057 129.531 57.684 128.786 57.6787C128.796 57.6481 128.805 57.6174 128.814 57.5865L128.864 57.4051C129.892 53.5851 129.397 49.1488 129.176 45.9585C128.915 42.1836 128.979 39.8239 129.811 38.2645C130.418 37.1269 130.411 35.756 129.795 34.6241L129.795 34.624C129.178 33.4922 128.036 32.7535 126.76 32.6626C124.317 32.4886 120.932 32.3699 117.41 32.3249C118.273 20.4066 119.257 8.24441 119.454 5.09682L119.46 5.0262C119.478 4.86209 119.524 4.70196 119.595 4.55276C120.1 3.48737 121.058 2.7458 122.003 2.22414C122.975 1.68809 124.114 1.28601 125.231 0.984237C127.463 0.380968 129.836 0.11801 131.158 0.0776304ZM235.545 0.488133C235.572 0.485585 235.656 0.477561 235.763 0.482978C235.814 0.485539 235.928 0.493451 236.067 0.530095C236.157 0.554015 236.532 0.655243 236.835 1.02272L236.835 1.02284C237.443 1.75758 237.981 2.91068 238.382 3.89912C238.802 4.93575 239.153 6.00018 239.346 6.69819C240.386 10.4752 240.877 12.1913 241.636 15.1869C241.754 15.6524 241.857 16.0858 241.948 16.485C241.961 16.444 241.973 16.4025 241.986 16.3605C243.138 12.5118 244.545 8.5553 245.299 4.15472C245.358 3.81086 245.506 3.38912 245.86 3.04071C246.217 2.68831 246.628 2.56551 246.916 2.52254C247.179 2.48341 247.421 2.49948 247.531 2.5066C247.69 2.517 247.72 2.52098 247.77 2.52098C251.078 2.52099 253.965 2.7022 257.13 2.52326C258.452 2.44855 259.913 2.4385 261.257 2.3999C262.638 2.36024 263.952 2.29028 265.14 2.10557C265.295 2.08147 265.317 2.07263 265.551 2.03327C265.703 2.00775 265.953 1.96875 266.212 1.97249C266.398 1.97519 267.013 1.99508 267.506 2.48933C268.116 3.10194 268.028 3.86995 267.93 4.23601C267.783 4.78659 267.375 5.83606 266.905 6.98772C266.417 8.18187 265.814 9.60237 265.229 10.9612C264.643 12.3213 264.072 13.6257 263.648 14.5897C263.436 15.0718 263.261 15.4692 263.138 15.746C263.077 15.8845 263.029 15.9929 262.996 16.0667C262.979 16.1036 262.967 16.1319 262.958 16.151C262.954 16.1605 262.951 16.168 262.949 16.1728C262.948 16.1752 262.947 16.1771 262.946 16.1784C262.946 16.1789 262.946 16.1794 262.946 16.1797L262.945 16.1802L262.945 16.1803C262.933 16.2071 262.921 16.2337 262.907 16.2598C260.788 20.3608 258.906 23.476 257.254 26.1248C255.591 28.7915 254.209 30.9123 253.018 33.1218C252.913 33.3173 252.835 33.4622 252.777 33.5715C252.844 33.8747 252.881 34.2389 252.881 34.717C252.881 37.3812 252.991 40.0145 253.067 42.7302C253.123 44.7015 252.875 46.9304 252.776 48.819C252.672 50.8113 252.712 52.6027 253.207 54.1787C253.222 54.2283 253.258 54.3052 253.351 54.4667C253.388 54.5301 253.614 54.8876 253.719 55.2153C253.781 55.4121 253.875 55.805 253.742 56.2648C253.592 56.7831 253.238 57.1093 252.917 57.286C252.633 57.4419 252.349 57.5 252.154 57.5279C251.943 57.558 251.72 57.5678 251.498 57.5678C250.875 57.5678 250.273 57.5296 249.711 57.4893C249.135 57.4479 248.616 57.4057 248.084 57.3863C245.305 57.2848 242.561 57.3766 239.681 57.3766C239.441 57.3766 239.188 57.379 238.926 57.3826C239.209 56.663 239.274 55.8647 239.095 55.0934C238.403 52.1014 235.753 42.5707 234.723 39.6004C233.263 35.3871 232.373 31.083 231.242 26.3529C229.794 20.2961 228.332 13.7958 225.881 7.58249C225.044 5.46077 224.492 4.48195 224.025 2.95523L223.978 2.79997L223.972 2.78055L223.959 2.73703C223.957 2.72981 223.954 2.72252 223.952 2.71533C223.893 2.53025 223.824 2.35704 223.748 2.19488C224.024 2.16204 224.299 2.1297 224.575 2.09777C227.832 1.72057 230.883 1.57916 233.865 0.931246C233.831 0.938533 234.122 0.857128 234.55 0.737384C234.736 0.685414 234.924 0.633071 235.067 0.593996C235.137 0.574724 235.202 0.557195 235.252 0.544242C235.275 0.538246 235.305 0.530458 235.334 0.523621C235.345 0.520977 235.377 0.513526 235.415 0.506476C235.428 0.50395 235.48 0.494509 235.545 0.488133ZM66.6476 24.6595C66.0591 24.5728 65.3957 24.8416 64.7664 25.3041C64.1644 25.7465 63.6373 26.334 63.2995 26.8309L63.2343 26.929C62.4628 28.1248 62.0612 29.7649 62.0438 31.4347C62.0264 33.1041 62.3933 34.7663 63.1184 36.0027C63.6972 36.9895 64.4126 37.6495 65.2423 38.013C66.0727 38.3769 67.0445 38.4556 68.155 38.2334L68.2185 38.2201C69.5433 37.9318 70.4818 36.9939 71.0575 35.694L71.1112 35.569C71.6554 34.2659 71.8351 32.642 71.6702 31.0379C71.5052 29.4338 70.9986 27.8775 70.1996 26.7067L70.1214 26.5945C69.292 25.4328 68.18 24.6985 66.8271 24.6743C66.767 24.6733 66.707 24.6682 66.6476 24.6595ZM211.041 20.6878C210.999 20.6102 210.395 21.9331 210.39 21.9561C209.319 24.4782 208.524 26.6908 207.459 29.9749C207.303 30.4531 207.067 30.9309 206.845 31.3765C206.71 31.6464 207.639 31.526 207.755 31.5221C208.832 31.4863 209.409 31.5221 210.489 31.5221C211.679 31.5221 214.242 31.3771 214.253 31.3765C214.245 31.3489 211.74 21.9859 211.041 20.6878ZM139.518 19.9953C138.937 19.9954 138.81 21.4589 138.81 21.4625C138.187 25.8999 138.189 26.502 138.022 29.0801C137.994 29.5231 139.476 29.8167 141.221 29.8167C144.714 29.8166 146.792 28.1576 147.119 24.5377C147.285 22.6962 146.077 20.6915 144.295 20.2817C143.304 20.0539 140.531 19.9953 139.518 19.9953Z" fill="#FAFAFA"/>
</svg>
